<?xml version="1.0" encoding="utf-8"?>
<!-- Generator: Adobe Illustrator 19.0.0, SVG Export Plug-In . SVG Version: 6.00 Build 0)  -->
<svg version="1.1" id="Layer_1" xmlns="http://www.w3.org/2000/svg" xmlns:xlink="http://www.w3.org/1999/xlink" x="0px" y="0px"
	 viewBox="0 0 88.9 63.8" style="enable-background:new 0 0 88.9 63.8;" xml:space="preserve">
<style type="text/css">
	.st0{fill:#FFFFFE;}
	.st1{fill:#E0E1E0;}
	.st2{fill:#F8EF70;}
	.st3{fill:#F8EF73;}
	.st4{fill:#F7EF70;}
	.st5{fill:#F8F075;}
	.st6{fill:#F8EF74;}
	.st7{fill:#FFD97C;}
	.st8{opacity:0.6;fill:none;stroke:#F06731;stroke-width:1.4173;stroke-miterlimit:10;}
	.st9{fill:none;stroke:#FFFFFF;stroke-width:2.8347;stroke-miterlimit:10;}
	.st10{fill:#FFFFFF;}
	.st11{fill:none;}
</style>
<g>
	<g>
		<g id="XMLID_19_">
			<path id="XMLID_27_" class="st0" d="M-11.2,0.4c33.1,0,66.2,0,99.2,0c1.5,0,1.8,0.3,1.8,1.8c-0.1,22-0.1,43.9,0,65.9
				c0,1.5-0.3,1.8-1.8,1.8c-32.5-0.1-65-0.1-97.5,0c-1.5,0-1.8-0.3-1.8-1.8C-11.2,45.5-11.2,23-11.2,0.4z M68.5,40.9
				c0.7-0.7,1.2-0.6,1.6-0.6c1.9,0.2,2-0.5,1.3-2.1c-2-4.2-5.3-6.5-9.7-7.4c-0.7-0.1-0.9-0.2-1.1-1.1c-1.9-8.2-8.4-13.1-16.2-12.7
				c-8.1,0.4-14.1,4.7-17.6,12c-1,2.1-2,2.2-3.8,1.3c-0.4-0.2-0.8-0.4-1.2-0.6C16.2,27,10.2,30.6,10,36.9c0,1.3-0.5,1.9-1.6,2.5
				c-4.6,2.7-6.7,8.1-5.2,13.4c1.4,4.9,6.2,8.7,11.1,8.7c4.5,0,9.1,0,13.6,0c1.4,0,2-0.5,2.5-1.8c1-2.7,2.4-5.1,5.1-6.5
				c1.6-0.8,2.7-1.6,0.7-3.1c-0.3-0.2-0.5-0.7-0.6-1.1c-0.8-2.8,0.4-5.8,2.8-7.1c3-1.7,6.1-1,8.5,1.7c1.7,1.9,1.8,4.9-0.1,7.1
				c-1,1.2-0.7,1.7,0.4,2.2c2.9,1.4,4.6,3.9,5.6,6.9c0.5,1.4,1.2,1.7,2.5,1.7c4.5-0.1,9.1-0.1,13.6,0c2.6,0.1,5-0.5,7.4-1.4
				c3.3-1.3,6.4-5.8,5.1-9.6c-1.7-5.1-5.5-7.5-10.3-9C70.4,41.4,69.6,41.2,68.5,40.9z M66.7,11.2c-0.1-0.2-0.2-0.4-0.3-0.5
				c-2.3-2.1-5-3.4-8-4c-0.3-0.1-0.6,0.1-0.7,0.4c-0.2,0.4,0.1,0.7,0.4,0.8c2.9,0.6,5.4,1.9,7.7,3.8C66.1,12,66.5,11.8,66.7,11.2z
				 M71.6,21c-0.1-2-0.7-3.9-1.7-5.7c-0.3-0.5-0.4-1.5-1.3-1c-0.7,0.4-0.1,1,0.2,1.5c0.9,1.7,1.4,3.5,1.5,5.4c0,0.5-0.5,1.5,0.6,1.5
				C71.8,22.5,71.5,21.6,71.6,21z M54.2,7.1c0-0.3-0.2-0.5-0.5-0.5c-2.4-0.1-4.5,0.6-6.6,1.7c-0.4,0.2-0.4,0.6-0.2,0.9
				c0.3,0.4,0.7,0.2,0.9,0c1.7-0.8,3.5-1.3,5.4-1.4C53.7,7.7,54.1,7.6,54.2,7.1z M39,16.9c0.6-0.2,1-0.2,1.1-0.3
				c1.3-1.7,2.3-3.6,3.9-5.1c0.1-0.1,0.1-0.6,0-0.8c-0.4-0.5-0.8-0.1-1.1,0.2C41.2,12.5,39.9,14.3,39,16.9z M71.2,25.8
				c-2.3,1.4-2.4,3.6-3.7,5c-0.3,0.3-0.9,0.8-0.2,1.2c0.6,0.4,0.9-0.2,1.2-0.6C69.7,29.9,70.5,28.2,71.2,25.8z M51.6,10.2
				c-1.5-0.3-2.8,0-3.6,1.4C49.1,11.1,50.3,10.6,51.6,10.2z"/>
			<path id="XMLID_26_" class="st1" d="M68.5,40.9c1.1,0.3,2,0.5,2.8,0.7c4.8,1.4,8.6,3.9,10.3,9c1.2,3.8-1.8,8.3-5.1,9.6
				C74,61,71.6,61.6,69,61.6c-4.5-0.1-9.1-0.1-13.6,0c-1.3,0-2.1-0.3-2.5-1.7c-1-2.9-2.6-5.4-5.6-6.9c-1.1-0.5-1.4-1.1-0.4-2.2
				c1.8-2.2,1.7-5.3,0.1-7.1c-2.4-2.7-5.5-3.4-8.5-1.7c-2.3,1.3-3.5,4.3-2.8,7.1c0.1,0.4,0.3,0.9,0.6,1.1c2,1.6,1,2.3-0.7,3.1
				c-2.7,1.3-4.1,3.8-5.1,6.5c-0.5,1.3-1.1,1.8-2.5,1.8c-4.5-0.1-9.1,0-13.6,0c-4.9-0.1-9.8-3.9-11.1-8.7
				c-1.5-5.3,0.6-10.7,5.2-13.4c1.1-0.6,1.5-1.3,1.6-2.5c0.2-6.3,6.2-9.9,11.8-7.1c0.4,0.2,0.8,0.4,1.2,0.6c1.7,1,2.8,0.8,3.8-1.3
				c3.5-7.3,9.5-11.6,17.6-12c7.8-0.4,14.3,4.5,16.2,12.7c0.2,0.9,0.4,0.9,1.1,1.1c4.4,0.9,7.7,3.2,9.7,7.4c0.7,1.6,0.6,2.3-1.3,2.1
				C69.6,40.3,69.1,40.2,68.5,40.9z"/>
			<path id="XMLID_25_" class="st2" d="M66.7,11.2c-0.2,0.6-0.5,0.8-1,0.4c-2.3-1.9-4.8-3.1-7.7-3.8c-0.4-0.1-0.6-0.3-0.4-0.8
				c0.1-0.3,0.4-0.4,0.7-0.4c3,0.6,5.7,1.9,8,4C66.5,10.8,66.6,11,66.7,11.2z"/>
			<path id="XMLID_24_" class="st3" d="M71.6,21c-0.1,0.6,0.3,1.6-0.6,1.6c-1,0-0.5-1-0.6-1.5c-0.2-1.9-0.7-3.7-1.5-5.4
				c-0.3-0.5-0.8-1.1-0.2-1.5c0.9-0.5,1,0.5,1.3,1C70.9,17,71.5,18.9,71.6,21z"/>
			<path id="XMLID_23_" class="st4" d="M54.2,7.1c-0.1,0.5-0.5,0.6-1,0.7c-1.9,0.1-3.7,0.7-5.4,1.4c-0.3,0.1-0.7,0.4-0.9,0
				c-0.2-0.3-0.2-0.7,0.2-0.9c2.1-1,4.2-1.8,6.6-1.7C54,6.5,54.2,6.7,54.2,7.1z"/>
			<path id="XMLID_22_" class="st5" d="M39,16.9c0.9-2.6,2.2-4.4,4-6c0.3-0.3,0.6-0.7,1.1-0.2c0.1,0.2,0.1,0.6,0,0.8
				c-1.6,1.5-2.6,3.4-3.9,5.1C40,16.8,39.6,16.7,39,16.9z"/>
			<path id="XMLID_21_" class="st6" d="M71.2,25.8c-0.7,2.5-1.5,4.1-2.7,5.6c-0.3,0.4-0.6,1-1.2,0.6c-0.7-0.4-0.1-0.9,0.2-1.2
				C68.8,29.4,68.9,27.1,71.2,25.8z"/>
			<path id="XMLID_20_" class="st7" d="M51.6,10.2c-1.2,0.5-2.4,1-3.6,1.4C48.8,10.2,50,9.9,51.6,10.2z"/>
		</g>
	</g>
	<path class="st8" d="M44.2,16c2.2-4,6.5-6.6,11.4-6.4c3.4,0.2,12.7,4.7,12.3,13.1c-0.2,3.5-2.2,6.2-4.1,8.1"/>
	<path class="st9" d="M49.7,14.1c-2.4-2.8-4.9-5.3-7-8.3"/>
	<path class="st9" d="M55.7,13.9c0.7-1.5,0.1-4.4,0.2-6.2c0.1-2,0.7-4,0.6-6"/>
	<path class="st9" d="M61.9,18c2.3-3.1,7.6-4.8,10.8-6.9c1.7-1.1,3.2-2.6,5-3.5"/>
	<path class="st9" d="M63,24.6c5,0,9.9,0,14.9,0c0.9,0,4.2,0.5,4-0.4"/>
	<rect x="6.5" y="60.3" class="st10" width="76.8" height="7"/>
	<rect x="47.8" y="9.7" class="st11" width="2.3" height="0.9"/>
</g>
</svg>
