<?xml version="1.0" encoding="utf-8"?>
<!-- Generator: Adobe Illustrator 19.0.0, SVG Export Plug-In . SVG Version: 6.00 Build 0)  -->
<svg version="1.1" id="Layer_1" xmlns="http://www.w3.org/2000/svg" xmlns:xlink="http://www.w3.org/1999/xlink" x="0px" y="0px"
	 viewBox="-266 358.1 77.4 76.9" style="enable-background:new -266 358.1 77.4 76.9;" xml:space="preserve">
<style type="text/css">
	.st0{opacity:0.12;fill:#F0EFEF;enable-background:new    ;}
	.st1{fill:#FFFFFF;}
	.st2{fill:none;stroke:#F26531;stroke-width:0.21;stroke-miterlimit:10;}
	.st3{opacity:5.000000e-02;fill:#F0EFEF;enable-background:new    ;}
	.st4{fill:none;stroke:#F06731;stroke-width:0.12;stroke-miterlimit:10;}
	.st5{fill:none;stroke:#000000;stroke-width:0.51;stroke-miterlimit:10;}
	.st6{fill:#F16631;stroke:#F16631;stroke-width:1.000000e-02;stroke-miterlimit:10;}
	.st7{fill:none;stroke:#F16631;stroke-width:0.3;stroke-miterlimit:10;}
</style>
<g id="XMLID_26_">
	<path id="XMLID_135_" class="st0" d="M-221.9,431.4c-2.5,1.1-6.7,1.1-9.2,0l-16.7-6.9c-2.5-1.1-5.5-4-6.5-6.5l-7-16.8
		c-1.1-2.5-1.1-6.7,0-9.2l6.9-16.7c1.1-2.5,4-5.5,6.5-6.5l16.7-6.9c2.5-1.1,6.7-1.1,9.2,0l16.7,6.9c2.5,1.1,5.5,4,6.5,6.5l7.1,16.7
		c1.1,2.5,1.1,6.7,0,9.2l-6.9,16.7c-1.1,2.5-4,5.5-6.5,6.5L-221.9,431.4z"/>
</g>
<polygon id="XMLID_147_" class="st1" points="-226.5,433.6 -252.7,422.7 -263.5,396.6 -252.7,370.4 -226.5,359.5 -200.3,370.4 
	-189.5,396.6 -200.3,422.7 "/>
<g id="XMLID_146_">
	<path class="st2" d="M-224.7,432.8c-1,0.4-2.7,0.4-3.7,0l-22.5-9.4c-1-0.4-2.2-1.6-2.6-2.6l-9.3-22.4c-0.4-1-0.4-2.7,0-3.7
		l9.3-22.5c0.4-1,1.6-2.2,2.6-2.6l22.5-9.4c1-0.4,2.7-0.4,3.7,0l22.5,9.4c1,0.4,2.2,1.6,2.6,2.6l9.3,22.5c0.4,1,0.4,2.7,0,3.7
		l-9.3,22.4c-0.4,1-1.6,2.2-2.6,2.6L-224.7,432.8z"/>
</g>
<polygon id="XMLID_144_" class="st3" points="-226.5,433.6 -252.7,422.7 -263.5,396.6 -252.7,370.4 -226.5,359.5 -200.3,370.4 
	-189.5,396.6 -200.3,422.7 "/>
<path id="XMLID_6_" class="st4" d="M-263.5,396.6c-12.1,2.2,48.2,35.1,73.3-0.1"/>
<path id="XMLID_7_" class="st4" d="M-252.7,422.7c-11.7,13.2,65.3-9.1,52.4-51.6"/>
<path id="XMLID_10_" class="st5" d="M-200.5,422.5"/>
<path id="XMLID_5_" class="st5" d="M-252.7,370.4"/>
<path id="XMLID_23_" class="st5" d="M-252.7,370.5"/>
<path id="XMLID_22_" class="st5" d="M-200.3,422.7"/>
<g>
	<line id="XMLID_11_" class="st4" x1="-206.7" y1="399.9" x2="-208.1" y2="403.4"/>
	<line id="XMLID_4_" class="st4" x1="-208.1" y1="403.4" x2="-203.8" y2="400.5"/>
</g>
<g id="XMLID_21_">
	<line id="XMLID_17_" class="st4" x1="-243.2" y1="409.1" x2="-245.9" y2="409.1"/>
	<line id="XMLID_8_" class="st4" x1="-245.9" y1="409.1" x2="-243.2" y2="411.2"/>
</g>
<rect id="XMLID_27_" x="-237.2" y="384.2" class="st6" width="0.2" height="6.4"/>
<polygon id="XMLID_25_" class="st6" points="-233.9,390.9 -233.6,390.7 -236.9,384 -237,384.4 "/>
<polygon id="XMLID_24_" class="st6" points="-234,390.7 -234.3,390.5 -231,383.8 -230.9,384.2 "/>
<rect id="XMLID_20_" x="-231" y="384.2" class="st6" width="0.3" height="6.4"/>
<rect id="XMLID_19_" x="-227.7" y="388" class="st6" width="0.2" height="2.5"/>
<polygon id="XMLID_18_" class="st6" points="-227.9,388.9 -228.1,388.8 -225.7,383.8 -225.6,384.1 "/>
<polygon id="XMLID_15_" class="st6" points="-227.7,388 -227.5,387.9 -229.5,383.8 -229.6,384.1 "/>
<rect id="XMLID_3_" x="-224" y="384.2" class="st6" width="0.3" height="6.3"/>
<rect id="XMLID_9_" x="-224" y="390.3" class="st6" width="2.3" height="0.2"/>
<ellipse id="XMLID_2_" class="st7" cx="-218.6" cy="387.3" rx="3.1" ry="3.2"/>
<rect id="XMLID_1_" x="-237.3" y="383.7" class="st1" width="0.7" height="0.5"/>
<rect id="XMLID_12_" x="-231.4" y="383.5" class="st1" width="0.7" height="0.7"/>
<rect id="XMLID_13_" x="-234.6" y="390.3" class="st1" width="1.2" height="0.8"/>
<rect id="XMLID_14_" x="-228.2" y="388" class="st1" width="0.5" height="1.1"/>
</svg>
